<mxfile host="app.diagrams.net" agent="Mozilla/5.0 (Windows NT 10.0; Win64; x64) AppleWebKit/537.36 (KHTML, like Gecko) Chrome/128.0.0.0 Safari/537.36" version="24.7.10">
  <diagram name="Page-1" id="zZPcGtBqzwjNFoHKb9Ic">
    <mxGraphModel dx="1747" dy="1840" grid="1" gridSize="10" guides="1" tooltips="1" connect="1" arrows="1" fold="1" page="0" pageScale="1" pageWidth="850" pageHeight="1100" math="0" shadow="0">
      <root>
        <mxCell id="0" />
        <mxCell id="1" parent="0" />
        <mxCell id="t4ijGXM-qIn6IghEhjj7-8" value="" style="rounded=1;whiteSpace=wrap;html=1;" vertex="1" parent="1">
          <mxGeometry x="-480" y="-400" width="780" height="570" as="geometry" />
        </mxCell>
        <mxCell id="t4ijGXM-qIn6IghEhjj7-10" value="VPC" style="sketch=0;outlineConnect=0;gradientColor=none;html=1;whiteSpace=wrap;fontSize=12;fontStyle=0;shape=mxgraph.aws4.group;grIcon=mxgraph.aws4.group_vpc;strokeColor=#879196;fillColor=none;verticalAlign=top;align=left;spacingLeft=30;fontColor=#879196;dashed=0;" vertex="1" parent="1">
          <mxGeometry x="-463.5" y="-370" width="713.5" height="480" as="geometry" />
        </mxCell>
        <mxCell id="t4ijGXM-qIn6IghEhjj7-12" style="edgeStyle=none;curved=1;rounded=0;orthogonalLoop=1;jettySize=auto;html=1;fontSize=12;startSize=8;endSize=8;" edge="1" parent="1" source="t4ijGXM-qIn6IghEhjj7-2" target="t4ijGXM-qIn6IghEhjj7-5">
          <mxGeometry relative="1" as="geometry" />
        </mxCell>
        <mxCell id="t4ijGXM-qIn6IghEhjj7-13" value="Managed" style="edgeLabel;html=1;align=center;verticalAlign=middle;resizable=0;points=[];fontSize=12;" vertex="1" connectable="0" parent="t4ijGXM-qIn6IghEhjj7-12">
          <mxGeometry x="0.0017" y="1" relative="1" as="geometry">
            <mxPoint as="offset" />
          </mxGeometry>
        </mxCell>
        <mxCell id="t4ijGXM-qIn6IghEhjj7-2" value="Ubuntu Server SSH Enabled" style="outlineConnect=0;dashed=0;verticalLabelPosition=bottom;verticalAlign=top;align=center;html=1;shape=mxgraph.aws3.traditional_server;fillColor=#7D7C7C;gradientColor=none;" vertex="1" parent="1">
          <mxGeometry x="130" y="-50" width="46.5" height="63" as="geometry" />
        </mxCell>
        <mxCell id="t4ijGXM-qIn6IghEhjj7-3" value="Elastic &amp;amp; Kibana&amp;nbsp;" style="outlineConnect=0;dashed=0;verticalLabelPosition=bottom;verticalAlign=top;align=center;html=1;shape=mxgraph.aws3.traditional_server;fillColor=#dae8fc;strokeColor=#6c8ebf;" vertex="1" parent="1">
          <mxGeometry x="-140" y="-310" width="46.5" height="63" as="geometry" />
        </mxCell>
        <mxCell id="t4ijGXM-qIn6IghEhjj7-4" value="Windows Server RDP Enabled" style="outlineConnect=0;dashed=0;verticalLabelPosition=bottom;verticalAlign=top;align=center;html=1;shape=mxgraph.aws3.traditional_server;fillColor=#7D7C7C;gradientColor=none;" vertex="1" parent="1">
          <mxGeometry x="-370" y="-50" width="50" height="63" as="geometry" />
        </mxCell>
        <mxCell id="t4ijGXM-qIn6IghEhjj7-5" value="Fleet Server" style="outlineConnect=0;dashed=0;verticalLabelPosition=bottom;verticalAlign=top;align=center;html=1;shape=mxgraph.aws3.traditional_server;fillColor=#d5e8d4;strokeColor=#82b366;" vertex="1" parent="1">
          <mxGeometry x="-130" y="-50" width="46.5" height="63" as="geometry" />
        </mxCell>
        <mxCell id="t4ijGXM-qIn6IghEhjj7-6" value="osTicket Server" style="outlineConnect=0;dashed=0;verticalLabelPosition=bottom;verticalAlign=top;align=center;html=1;shape=mxgraph.aws3.traditional_server;fillColor=#e1d5e7;strokeColor=#9673a6;" vertex="1" parent="1">
          <mxGeometry x="130" y="-321.5" width="46.5" height="63" as="geometry" />
        </mxCell>
        <mxCell id="t4ijGXM-qIn6IghEhjj7-7" value="C2 Server" style="outlineConnect=0;dashed=0;verticalLabelPosition=bottom;verticalAlign=top;align=center;html=1;shape=mxgraph.aws3.traditional_server;fillColor=#f5320f;strokeColor=#b85450;" vertex="1" parent="1">
          <mxGeometry x="310" y="-480" width="46.5" height="63" as="geometry" />
        </mxCell>
        <mxCell id="t4ijGXM-qIn6IghEhjj7-9" value="VULTR" style="text;html=1;align=center;verticalAlign=middle;whiteSpace=wrap;rounded=0;fontSize=16;" vertex="1" parent="1">
          <mxGeometry x="-463.5" y="-390" width="60" height="30" as="geometry" />
        </mxCell>
        <mxCell id="t4ijGXM-qIn6IghEhjj7-11" style="edgeStyle=none;curved=1;rounded=0;orthogonalLoop=1;jettySize=auto;html=1;entryX=0;entryY=0.5;entryDx=0;entryDy=0;entryPerimeter=0;fontSize=12;startSize=8;endSize=8;" edge="1" parent="1" source="t4ijGXM-qIn6IghEhjj7-4" target="t4ijGXM-qIn6IghEhjj7-5">
          <mxGeometry relative="1" as="geometry" />
        </mxCell>
        <mxCell id="t4ijGXM-qIn6IghEhjj7-14" value="Managed" style="edgeLabel;html=1;align=center;verticalAlign=middle;resizable=0;points=[];fontSize=12;" vertex="1" connectable="0" parent="t4ijGXM-qIn6IghEhjj7-11">
          <mxGeometry x="-0.1316" y="1" relative="1" as="geometry">
            <mxPoint y="1" as="offset" />
          </mxGeometry>
        </mxCell>
        <mxCell id="t4ijGXM-qIn6IghEhjj7-15" style="edgeStyle=none;curved=1;rounded=0;orthogonalLoop=1;jettySize=auto;html=1;entryX=0.5;entryY=1;entryDx=0;entryDy=0;entryPerimeter=0;fontSize=12;startSize=8;endSize=8;startArrow=classic;startFill=1;fillColor=#ffe6cc;strokeColor=#d79b00;dashed=1;dashPattern=12 12;" edge="1" parent="1" source="t4ijGXM-qIn6IghEhjj7-5" target="t4ijGXM-qIn6IghEhjj7-3">
          <mxGeometry relative="1" as="geometry" />
        </mxCell>
        <mxCell id="t4ijGXM-qIn6IghEhjj7-18" value="Managed Agents" style="edgeLabel;html=1;align=center;verticalAlign=middle;resizable=0;points=[];fontSize=12;" vertex="1" connectable="0" parent="t4ijGXM-qIn6IghEhjj7-15">
          <mxGeometry x="0.0256" relative="1" as="geometry">
            <mxPoint as="offset" />
          </mxGeometry>
        </mxCell>
        <mxCell id="t4ijGXM-qIn6IghEhjj7-16" style="edgeStyle=none;curved=1;rounded=0;orthogonalLoop=1;jettySize=auto;html=1;entryX=1;entryY=0.5;entryDx=0;entryDy=0;entryPerimeter=0;fontSize=12;startSize=8;endSize=8;fillColor=#fff2cc;strokeColor=#d6b656;startArrow=classic;startFill=1;dashed=1;dashPattern=12 12;" edge="1" parent="1" source="t4ijGXM-qIn6IghEhjj7-6" target="t4ijGXM-qIn6IghEhjj7-3">
          <mxGeometry relative="1" as="geometry" />
        </mxCell>
        <mxCell id="t4ijGXM-qIn6IghEhjj7-17" value="Alerts/Tickets" style="edgeLabel;html=1;align=center;verticalAlign=middle;resizable=0;points=[];fontSize=12;" vertex="1" connectable="0" parent="t4ijGXM-qIn6IghEhjj7-16">
          <mxGeometry x="-0.0421" y="1" relative="1" as="geometry">
            <mxPoint y="1" as="offset" />
          </mxGeometry>
        </mxCell>
        <mxCell id="t4ijGXM-qIn6IghEhjj7-20" style="edgeStyle=none;curved=1;rounded=0;orthogonalLoop=1;jettySize=auto;html=1;entryX=0;entryY=0.5;entryDx=0;entryDy=0;entryPerimeter=0;fontSize=12;startSize=8;endSize=8;dashed=1;dashPattern=12 12;" edge="1" parent="1" source="t4ijGXM-qIn6IghEhjj7-4" target="t4ijGXM-qIn6IghEhjj7-3">
          <mxGeometry relative="1" as="geometry" />
        </mxCell>
        <mxCell id="t4ijGXM-qIn6IghEhjj7-22" value="Forward Logs via Agent" style="edgeLabel;html=1;align=center;verticalAlign=middle;resizable=0;points=[];fontSize=12;" vertex="1" connectable="0" parent="t4ijGXM-qIn6IghEhjj7-20">
          <mxGeometry x="0.0111" relative="1" as="geometry">
            <mxPoint as="offset" />
          </mxGeometry>
        </mxCell>
        <mxCell id="t4ijGXM-qIn6IghEhjj7-21" style="edgeStyle=none;curved=1;rounded=0;orthogonalLoop=1;jettySize=auto;html=1;entryX=1;entryY=0.5;entryDx=0;entryDy=0;entryPerimeter=0;fontSize=12;startSize=8;endSize=8;fillColor=#dae8fc;strokeColor=#6c8ebf;dashed=1;dashPattern=12 12;" edge="1" parent="1" source="t4ijGXM-qIn6IghEhjj7-2" target="t4ijGXM-qIn6IghEhjj7-3">
          <mxGeometry relative="1" as="geometry" />
        </mxCell>
        <mxCell id="t4ijGXM-qIn6IghEhjj7-23" value="Forward Logs via Agent" style="edgeLabel;html=1;align=center;verticalAlign=middle;resizable=0;points=[];fontSize=12;" vertex="1" connectable="0" parent="t4ijGXM-qIn6IghEhjj7-21">
          <mxGeometry x="-0.0295" y="-2" relative="1" as="geometry">
            <mxPoint as="offset" />
          </mxGeometry>
        </mxCell>
        <mxCell id="t4ijGXM-qIn6IghEhjj7-24" value="Private Network: 172.31.0.0/124&lt;div&gt;IP Range: 172.31.0.1-254&amp;nbsp;&lt;/div&gt;&lt;div&gt;Subnet Mask: 255.255.255.0&lt;/div&gt;" style="text;html=1;align=left;verticalAlign=middle;whiteSpace=wrap;rounded=0;fontSize=16;" vertex="1" parent="1">
          <mxGeometry x="-460" y="-310" width="260" height="80" as="geometry" />
        </mxCell>
      </root>
    </mxGraphModel>
  </diagram>
</mxfile>
